<svg width="642" height="325" viewBox="0 0 642 325" fill="none" xmlns="http://www.w3.org/2000/svg">
<path d="M627.09 191.3C625.56 193.03 624.43 195.11 623.09 197.01C617.83 204.48 612.9 212.22 607.19 219.34C600.09 228.18 592.34 236.55 581.02 240.17C572.73 242.82 565.6 239.01 565.12 230.44C564.75 223.86 565.72 216.65 568.17 210.56C576.95 188.72 586.68 167.26 595.9 145.6C597.44 141.99 598.83 138.16 599.3 134.3C599.91 129.29 596.85 125.62 592.14 124.27C585.31 122.32 577.06 126.4 574.45 133.02C573.95 134.29 573.49 135.58 572.57 138.04C572.39 128.64 568.23 122.95 560.79 120.61C555.7 119.01 549.95 118.19 544.68 118.75C528.25 120.49 515 129.14 503.62 140.47C484.16 159.83 469.63 182.55 459.42 208.03C458.94 209.23 458.31 210.45 457.48 211.43C451.9 218.05 446.37 224.73 440.59 231.17C429.72 243.26 417.08 252.73 400.95 256.6C395.79 257.84 390.47 257.71 386.22 254.14C378.97 248.06 375.17 240.22 375.51 230.56C376.13 230.27 376.54 230.03 376.99 229.86C377.77 229.57 378.55 229.29 379.35 229.07C398.17 223.82 415.3 215.27 430.09 202.42C443.84 190.47 455.49 176.93 459.81 158.59C463.78 141.75 452.44 127.74 435.15 128.12C425.65 128.33 416.8 131.39 408.88 136.44C377.11 156.73 358.23 185.56 352.35 222.87C351.87 225.91 351.93 229.83 350.08 231.74C340.24 241.89 330.08 251.77 319.54 261.18C316.55 263.85 312.01 265.13 307.95 266.17C303.49 267.32 301.21 264.45 301.74 260.24C302.4 255.02 303.16 249.65 304.99 244.76C310 231.41 315.86 218.39 320.89 205.05C326.5 190.19 332.19 175.31 336.7 160.09C340.69 146.63 333.31 137.64 319.3 138.08C313.45 138.26 307.37 139.52 301.89 141.6C277.46 150.86 257.01 165.76 240.82 186.57C240.72 186.03 240.53 185.66 240.62 185.41C250.28 160.19 259.93 134.96 269.76 109.8C270.24 108.57 272.23 107.3 273.64 107.16C303.36 104.15 327.42 90.93 345.56 67.23C354.27 55.85 359.71 43.39 357.56 28.39C354.37 6.16 329.82 -6.23 310.47 4.89C300.64 10.54 292.77 18.39 285.55 26.96C273.44 41.34 265.26 58.1 256.76 74.67C250.87 86.15 250.78 86.46 238.05 83.78C211.62 78.22 185.23 72.47 158.9 66.45C129.09 59.64 99.2699 56.43 69.1099 64.07C44.3199 70.35 23.5599 82.7 10.0299 104.98C-0.110051 121.68 -2.50005 139.92 2.73995 158.75C9.46995 182.95 36.2899 202.12 67.7999 192.32C73.8199 190.45 79.8199 187.56 84.8899 183.85C89.3999 180.55 89.6299 174.87 87.4499 169.69C85.2999 164.58 80.8099 162.59 75.6799 163.19C71.9999 163.62 68.3699 165.12 64.8999 166.59C58.0399 169.49 51.14 170.52 44.11 167.65C31.07 162.31 24.0099 148.5 26.7799 134.2C30.2899 116.07 41.37 104 57.49 96.14C72.42 88.86 88.5799 86.36 104.89 86.31C117.3 86.27 129.79 87.72 142.12 89.41C153.22 90.93 164.15 93.66 174.28 95.68C167.74 105.29 160.85 113.9 155.61 123.42C140.68 150.52 130.13 179.48 120.39 208.79C113.12 230.69 105.11 252.35 91.7699 271.51C85.3599 280.71 78.2899 289.32 68.6399 295.38C56.0099 303.32 40.9799 302 32.1199 292.26C25.7999 285.32 25.6499 276.35 31.7299 269.23C37.6599 262.28 34.2499 252.76 25.1999 251.1C17.5799 249.7 11.4799 252.15 6.93995 258.48C-2.23005 271.25 -2.31005 291.08 6.78995 304.02C17.9299 319.87 42.2899 327.85 63.2099 322.54C82.33 317.68 96.37 305.47 108.66 290.87C122.86 274.01 132.5 254.48 140.4 234.13C150.11 209.11 158.87 183.73 168.63 158.73C176.06 139.7 184.84 121.23 196.54 104.35C197.48 103 199.6 101.35 200.92 101.55C214.46 103.53 227.94 105.86 241.64 108.13C239.62 112.69 237.38 117.48 235.35 122.35C216.03 168.6 200.53 216.18 186.55 264.27C184.07 272.79 182.57 281.68 181.55 290.5C180.92 296 184.31 299.5 189.52 301.11C197.04 303.43 203.1 300.41 206.43 292.17C209.97 283.42 212.95 274.44 216.45 265.67C229.41 233.2 247.25 203.83 272.1 179.01C279.23 171.89 287.46 166.25 297.31 163.49C303.48 161.76 307.14 165.14 306.07 171.5C305.58 174.42 304.82 177.36 303.72 180.11C297.25 196.27 290.58 212.35 284.1 228.5C279.03 241.13 273.89 253.75 274.39 267.8C274.88 281.34 282.56 288.73 295.88 289.23C308.36 289.7 318.67 284.77 327.7 277.11C336.64 269.53 344.86 261.1 353.63 252.81C353.92 254.01 354.2 255.09 354.45 256.18C359.08 276.13 375.41 286.85 395.34 283.35C410.17 280.75 422.88 273.79 434.37 264.55C441.02 259.21 447.01 253.05 452.56 247.94C455.8 253.95 458.12 260.79 462.5 265.84C472.11 276.91 488.35 277.25 502.42 267.6C514.88 259.05 525.62 248.67 534.42 236.34C535.1 235.39 535.92 234.55 537.41 232.8C537.41 237.7 537.2 241.36 537.45 244.99C538.35 258.1 549.86 268.74 562.88 269.17C570.42 269.42 577.39 267.76 584.03 264.5C609.17 252.15 626.82 232.1 640.3 208.22C642.44 204.43 642.31 198.4 641.17 193.93C639.42 187.09 631.76 186.02 627.08 191.32L627.09 191.3ZM412.08 161.13C416.8 157.4 422.58 154.79 428.23 152.55C430.51 151.64 434.84 152.15 436.23 153.75C437.65 155.4 437.64 159.68 436.51 161.93C424.42 186.15 405.86 203.18 379.13 211.9C385.94 191.66 395.66 174.11 412.08 161.13ZM309.27 39C312.38 35.43 316.3 32.47 320.2 29.73C322.99 27.76 326.91 26.81 329.32 29.76C331.3 32.18 332.96 35.93 332.7 38.92C331.97 47.46 327.2 54.48 321.84 60.88C311.22 73.56 297.63 81.19 280.67 84.03C288.77 67.53 297.64 52.35 309.27 39.01V39ZM560.58 157.69C556.12 175.01 546.6 189.84 537.05 204.58C528.62 217.6 519.15 229.89 506.58 239.24C502.15 242.53 497.03 245.39 491.78 246.96C482.98 249.6 479.33 246.13 479.91 233.47C482.15 214.27 490.41 193.76 504.41 176.03C512.05 166.35 521.43 157.95 530.62 149.61C536.2 144.54 543.52 143.04 551.15 144C559.67 145.07 562.71 149.44 560.59 157.69H560.58Z" fill="#111827"/>
</svg> 